<?xml version="1.0" encoding="UTF-8"?>
<svg width="96px" height="96px" viewBox="0 0 96 96" version="1.1" xmlns="http://www.w3.org/2000/svg" xmlns:xlink="http://www.w3.org/1999/xlink">
    <!-- Generator: Sketch 56.2 (81672) - https://sketch.com -->
    <title>编组备份 6</title>
    <desc>Created with Sketch.</desc>
    <defs>
        <linearGradient x1="0%" y1="-10.0423177%" x2="153.629557%" y2="157.497152%" id="linearGradient-1">
            <stop stop-color="#F7F8FB" offset="0%"></stop>
            <stop stop-color="#B8C3D9" offset="100%"></stop>
        </linearGradient>
        <rect id="path-2" x="0" y="0" width="96" height="96" rx="34"></rect>
        <filter x="-28.1%" y="-17.3%" width="156.2%" height="134.6%" filterUnits="objectBoundingBox" id="filter-4">
            <feOffset dx="0" dy="6" in="SourceAlpha" result="shadowOffsetOuter1"></feOffset>
            <feGaussianBlur stdDeviation="4" in="shadowOffsetOuter1" result="shadowBlurOuter1"></feGaussianBlur>
            <feColorMatrix values="0 0 0 0 0.666666667   0 0 0 0 0.501960784   0 0 0 0 0.368627451  0 0 0 0.135161713 0" type="matrix" in="shadowBlurOuter1" result="shadowMatrixOuter1"></feColorMatrix>
            <feMerge>
                <feMergeNode in="shadowMatrixOuter1"></feMergeNode>
                <feMergeNode in="SourceGraphic"></feMergeNode>
            </feMerge>
        </filter>
        <polygon id="path-5" points="1.61194458e-07 0.00238938053 89.7849558 0.00238938053 89.7849558 102.743363 1.61194458e-07 102.743363"></polygon>
        <linearGradient x1="23.2039916%" y1="0%" x2="72.2498049%" y2="73.9323175%" id="linearGradient-7">
            <stop stop-color="#EBBA8B" offset="0%"></stop>
            <stop stop-color="#9A6238" offset="100%"></stop>
        </linearGradient>
        <path d="M84.3876636,41.5353982 C75.6473096,37.1413274 72.9990795,28.1238053 72.9990795,28.1238053 C77.5014689,31.7707965 82.0046547,32.9025664 82.0046547,32.9025664 C74.9854512,20.8019469 60.9454512,10.739469 60.9454512,10.739469 L60.9414689,10.7426549 C55.6983715,6.54690265 48.8376636,3.65575221 41.1709379,2.72309735 C43.478283,1.42566372 43.4233273,0 43.4233273,0 C42.0789025,0.672212389 39.3223538,1.37628319 36.9321768,1.90752212 C37.529522,1.14132743 37.508814,0.551150442 37.508814,0.551150442 C35.5439467,1.53318584 30.5644777,2.58371681 28.1225308,3.06159292 C27.6653627,3.1420354 27.208991,3.22486726 26.758991,3.31964602 C26.7390795,3.32283186 26.7271326,3.32522124 26.7271326,3.32522124 C26.7271326,3.32522124 26.7183715,3.32840708 26.7112034,3.33 C12.7476636,6.27451327 2.13801754,15.8471681 0.416867095,27.6021239 C0.416867095,27.6013274 0.413681255,27.5957522 0.413681255,27.5957522 C0.413681255,27.5957522 -2.66702671,42.0953097 7.98562816,52.2557522 C18.6374866,62.4161947 17.1807609,66.9193805 17.1807609,66.9193805 C17.1807609,66.9193805 18.7919998,63.9987611 17.7677521,60.4720354 C21.0635043,62.7841593 25.3755397,65.059646 32.2115574,69.8989381 C43.9975751,78.2410619 36.449522,99.6953097 36.7139467,100.092743 C36.979168,100.489381 62.2723538,102.740973 62.2723538,102.740973 L88.6256282,85.1280531 C88.6256282,85.1280531 93.128814,45.929469 84.3876636,41.5353982" id="path-8"></path>
        <path d="M31.534469,0 C48.6894248,0 62.5964159,11.2324779 62.5964159,25.0884956 C62.5964159,38.9445133 48.6894248,50.1769912 31.534469,50.1769912 C14.3795133,50.1769912 0.472522124,38.9445133 0.472522124,25.0884956 C0.472522124,11.2324779 14.3795133,0 31.534469,0" id="path-10"></path>
        <linearGradient x1="50%" y1="0%" x2="50%" y2="100%" id="linearGradient-12">
            <stop stop-color="#34394F" stop-opacity="0" offset="0%"></stop>
            <stop stop-color="#596496" stop-opacity="0.8" offset="100%"></stop>
        </linearGradient>
        <linearGradient x1="50%" y1="0%" x2="50%" y2="100%" id="linearGradient-13">
            <stop stop-color="#34394F" stop-opacity="0" offset="0%"></stop>
            <stop stop-color="#596496" stop-opacity="0.8" offset="100%"></stop>
        </linearGradient>
        <linearGradient x1="20.3530414%" y1="25.3659308%" x2="89.1593464%" y2="75.2159743%" id="linearGradient-14">
            <stop stop-color="#7785A1" offset="0%"></stop>
            <stop stop-color="#424D69" offset="100%"></stop>
        </linearGradient>
        <polygon id="path-15" points="0 0 40 0 40 11 0 11"></polygon>
        <polygon id="path-17" points="0 9.08077643e-05 31.672 9.08077643e-05 31.672 45.3846 0 45.3846"></polygon>
    </defs>
    <g id="页面1" stroke="none" stroke-width="1" fill="none" fill-rule="evenodd">
        <g id="画板" transform="translate(-34.000000, -32.000000)">
            <g id="编组备份-6" transform="translate(34.000000, 32.000000)">
                <mask id="mask-3" fill="white">
                    <use xlink:href="#path-2"></use>
                </mask>
                <use id="蒙版" fill="url(#linearGradient-1)" xlink:href="#path-2"></use>
                <g id="编组" filter="url(#filter-4)" mask="url(#mask-3)">
                    <g transform="translate(11.000000, -35.000000)">
                        <g id="编组" transform="translate(0.000000, 50.794071)">
                            <g>
                                <mask id="mask-6" fill="white">
                                    <use xlink:href="#path-5"></use>
                                </mask>
                                <g id="Clip-2"></g>
                                <path d="M84.3876637,41.5377876 C75.6473097,37.1437168 72.9990796,28.1261947 72.9990796,28.1261947 C77.501469,31.7731858 82.0046549,32.9049558 82.0046549,32.9049558 C74.9854513,20.8043363 60.9454513,10.7418584 60.9454513,10.7418584 L60.941469,10.7450442 C55.6983717,6.54929204 48.8376637,3.65814159 41.1709381,2.72548673 C43.4782832,1.4280531 43.4233274,0.00238938053 43.4233274,0.00238938053 C42.0789027,0.67460177 39.322354,1.37867257 36.932177,1.9099115 C37.5295221,1.14371681 37.5088142,0.553539823 37.5088142,0.553539823 C35.5439469,1.53557522 30.5644779,2.58610619 28.122531,3.0639823 C27.6653628,3.14442478 27.2089912,3.22725664 26.7589912,3.3220354 C26.7390796,3.32522124 26.7271327,3.32761062 26.7271327,3.32761062 C26.7271327,3.32761062 26.7183717,3.33079646 26.7112035,3.33238938 C12.7476637,6.27690265 2.1380177,15.8495575 0.416867257,27.6045133 C0.416867257,27.6037168 0.413681416,27.5981416 0.413681416,27.5981416 C0.413681416,27.5981416 -2.66702655,42.0976991 7.98562832,52.2581416 C18.6374867,62.4185841 17.1807611,66.9217699 17.1807611,66.9217699 C17.1807611,66.9217699 18.792,64.0011504 17.7677522,60.4744248 C21.0635044,62.7865487 25.3755398,65.0620354 32.2115575,69.9013274 C43.9975752,78.2434513 36.4495221,99.6976991 36.7139469,100.095133 C36.9791681,100.49177 62.272354,102.743363 62.272354,102.743363 L88.6256283,85.1304425 C88.6256283,85.1304425 93.1288142,45.9318584 84.3876637,41.5377876" id="Fill-1" fill="#BE8B64" mask="url(#mask-6)"></path>
                            </g>
                            <g id="Fill-1" transform="translate(0.000000, 0.002389)">
                                <mask id="mask-9" fill="white">
                                    <use xlink:href="#path-8"></use>
                                </mask>
                                <use id="蒙版" fill="url(#linearGradient-7)" xlink:href="#path-8"></use>
                                <path d="M65.9998873,53.2035497 C65.9998873,53.2035497 44.5606131,65.38063 35.0802483,64.1091935 C24.5309655,62.6944015 21.9998873,55.2565736 21.9998873,55.2565736 C21.9998873,55.2565736 34.9484729,69.0090738 65.9998873,53.2035497 Z" fill="#866041" opacity="0.186802455" mask="url(#mask-9)" transform="translate(43.999887, 58.702902) rotate(-10.000000) translate(-43.999887, -58.702902) "></path>
                            </g>
                        </g>
                        <g id="编组-8" opacity="0.656040737" transform="translate(65.500000, 116.500000) rotate(-35.000000) translate(-65.500000, -116.500000) translate(38.000000, 103.000000)">
                            <g id="编组-7" transform="translate(3.000000, 0.000000)" fill="#8F5E3A">
                                <rect id="矩形" opacity="0.527762277" transform="translate(15.723721, 9.566987) rotate(-360.000000) translate(-15.723721, -9.566987) " x="14.7237206" y="6.5669873" width="2" height="6" rx="1"></rect>
                                <rect id="矩形备份-16" opacity="0.527762277" transform="translate(30.848076, 11.370835) rotate(-360.000000) translate(-30.848076, -11.370835) " x="29.8480762" y="8.37083488" width="2" height="6" rx="1"></rect>
                                <rect id="矩形备份-17" opacity="0.527762277" transform="translate(42.073956, 3.221087) rotate(-360.000000) translate(-42.073956, -3.221087) " x="41.0739564" y="0.22108689" width="2" height="6" rx="1"></rect>
                                <rect id="矩形备份-18" opacity="0.527762277" transform="translate(50.570508, 11.210581) rotate(-360.000000) translate(-50.570508, -11.210581) " x="49.5705081" y="8.21058084" width="2" height="6" rx="1"></rect>
                                <rect id="矩形备份-11" opacity="0.232491629" transform="translate(1.849681, 3.133562) rotate(-360.000000) translate(-1.849681, -3.133562) " x="0.849680951" y="0.133561509" width="2" height="6" rx="1"></rect>
                            </g>
                            <g id="编组-7备份" transform="translate(0.000000, 14.000000)" fill="#8F5E3A" opacity="0.527762277">
                                <rect id="矩形" transform="translate(8.124589, 3.634423) rotate(-360.000000) translate(-8.124589, -3.634423) " x="7.12458908" y="0.634422751" width="2" height="6" rx="1"></rect>
                                <rect id="矩形备份-16" transform="translate(26.310784, 9.043886) rotate(-360.000000) translate(-26.310784, -9.043886) " x="25.3107845" y="6.04388634" width="2" height="6" rx="1"></rect>
                                <rect id="矩形备份-17" transform="translate(43.597103, 5.277827) rotate(-360.000000) translate(-43.597103, -5.277827) " x="42.5971027" y="2.277827" width="2" height="6" rx="1"></rect>
                                <rect id="矩形备份-18" transform="translate(49.000000, 7.000000) rotate(-360.000000) translate(-49.000000, -7.000000) " x="48" y="4" width="2" height="6" rx="1"></rect>
                            </g>
                        </g>
                        <g id="编组" transform="translate(29.469027, 82.652478)"></g>
                        <g id="face" transform="translate(3.472269, 58.212301)">
                            <g id="椭圆形" transform="translate(0.527731, 0.397991)">
                                <mask id="mask-11" fill="white">
                                    <use xlink:href="#path-10"></use>
                                </mask>
                                <use id="蒙版" fill="#F4E4DE" xlink:href="#path-10"></use>
                                <path d="M10,14.389708 C13.8659932,14.389708 17,17.5237147 17,21.389708 C17,25.2557012 13.8659932,28.389708 10,28.389708 L-4,28.389708 L-4,14.389708 L10,14.389708 Z" id="形状结合" fill="#715D55" opacity="0.076171875" mask="url(#mask-11)" transform="translate(6.500000, 21.389708) rotate(-345.000000) translate(-6.500000, -21.389708) "></path>
                                <path d="M61,14.389708 C64.8659932,14.389708 68,17.5237147 68,21.389708 C68,25.2557012 64.8659932,28.389708 61,28.389708 L47,28.389708 L47,14.389708 L61,14.389708 Z" id="形状结合备份" fill="#715D55" opacity="0.076171875" mask="url(#mask-11)" transform="translate(57.500000, 21.389708) scale(-1, 1) rotate(-345.000000) translate(-57.500000, -21.389708) "></path>
                            </g>
                            <path d="M53.2710588,14.451531 C48.9215898,15.131708 45.6019437,18.7436549 45.6019437,23.0971062 C45.6019437,27.9356018 49.7029172,31.8581681 54.7612358,31.8581681 C55.2733597,31.8581681 55.7751296,31.8183451 56.2633597,31.7410885 C52.8999083,39.6738319 43.3121207,45.3979912 32.0095544,45.3979912 C20.2418552,45.3979912 10.3322977,39.1927699 7.37185525,30.750292 C8.24318268,31.0123274 9.17185525,31.1548938 10.1347756,31.1548938 C15.1731827,31.1548938 19.256634,27.2785221 19.256634,22.4973717 C19.256634,18.0690531 15.7538021,14.4180796 11.2346871,13.9027699 C15.8684924,8.86038053 23.446811,5.5749823 32.0095544,5.5749823 C40.8789349,5.5749823 48.6930057,9.10011504 53.2710588,14.451531" id="Fill-5" fill="#FFFFFF"></path>
                            <path d="M28.0798995,34.7876991 C28.0798995,36.5470796 29.8631738,37.9735398 32.0622004,37.9735398 C34.2620234,37.9735398 36.0445013,36.5470796 36.0445013,34.7876991" id="Stroke-7" stroke="url(#linearGradient-12)" stroke-linecap="round"></path>
                            <path d="M49.5277314,23.7876991 L55.2128641,25.2157522 C54.6298552,25.8712389 53.7202977,26.2933628 52.6968464,26.2933628 C51.0465809,26.2933628 49.6894128,25.1950442 49.5277314,23.7876991" id="Fill-9" fill="#424D69"></path>
                            <path d="M10.5577756,21.5041858 C9.23804109,21.5041858 8.16839507,22.5738319 8.16839507,23.8935664 C8.16839507,25.2133009 9.23804109,26.2829469 10.5577756,26.2829469 C11.8775101,26.2829469 12.9471561,25.2133009 12.9471561,23.8935664 C12.9471561,22.5738319 11.8775101,21.5041858 10.5577756,21.5041858" id="Fill-11" fill="#424D69"></path>
                            <path d="M31.8176075,30.224955 C31.07228,33.410936 31.07228,35.4959511 32.5,37.9735398" id="Stroke-13" stroke="url(#linearGradient-13)" stroke-linecap="round"></path>
                            <path d="M31.7205798,26.9421134 C31.6244276,27.0605149 31.4298156,27.0637149 31.3328941,26.9445134 L31.3328941,26.9445134 C29.5590783,24.7740866 26.433747,25.8629 26.5298992,28.523733 L26.5298992,28.523733 C26.6060517,30.6413592 28.1021801,31.6893722 29.8813805,33.1893908 L29.8813805,33.1893908 C30.8290566,33.9878007 32.2421094,33.9878007 33.1859394,33.1853907 L33.1859394,33.1853907 C34.9774473,31.6613718 36.4228073,30.6333591 36.5235748,28.5861338 L36.5235748,28.5861338 C36.6089579,26.8621124 35.3659022,25.7876991 33.993618,25.7876991 L33.993618,25.7876991 C33.202093,25.7876991 32.3682611,26.1453035 31.7205798,26.9421134" id="Fill-15" fill="url(#linearGradient-14)" transform="translate(31.527731, 29.787699) rotate(4.000000) translate(-31.527731, -29.787699) "></path>
                            <g id="编组" transform="translate(12.527731, 1.787699)">
                                <mask id="mask-16" fill="white">
                                    <use xlink:href="#path-15"></use>
                                </mask>
                                <g id="Clip-2"></g>
                            </g>
                        </g>
                    </g>
                </g>
                <g id="编组" mask="url(#mask-3)">
                    <g transform="translate(26.000000, 78.000000)">
                        <mask id="mask-18" fill="white">
                            <use xlink:href="#path-17"></use>
                        </mask>
                        <g id="Clip-2" stroke="none" fill="none"></g>
                    </g>
                </g>
            </g>
        </g>
    </g>
</svg>