<?xml version="1.0" encoding="UTF-8"?>
<svg width="48px" height="48px" viewBox="0 0 48 48" version="1.1" xmlns="http://www.w3.org/2000/svg" xmlns:xlink="http://www.w3.org/1999/xlink">
    <!-- Generator: Sketch 63.1 (92452) - https://sketch.com -->
    <title>底图</title>
    <desc>Created with Sketch.</desc>
    <defs>
        <rect id="path-1" x="0" y="0" width="48" height="48"></rect>
    </defs>
    <g id="0401" stroke="none" stroke-width="1" fill="none" fill-rule="evenodd">
        <g id="切图用" transform="translate(-859.000000, -172.000000)">
            <g id="编组-5备份-2" transform="translate(823.000000, 172.000000)">
                <g id="编组-8" transform="translate(36.000000, 0.000000)">
                    <g id="编组-7">
                        <mask id="mask-2" fill="white">
                            <use xlink:href="#path-1"></use>
                        </mask>
                        <g id="蒙版"></g>
                        <path d="M48,18 C64.5685425,18 78,31.4314575 78,48 C78,64.5685425 64.5685425,78 48,78 C31.4314575,78 18,64.5685425 18,48 C18,31.4314575 31.4314575,18 48,18 Z M48,21.9593909 C33.6181687,21.9593909 21.9593909,33.6181687 21.9593909,48 C21.9593909,62.3818313 33.6181687,74.0406091 48,74.0406091 C62.3818313,74.0406091 74.0406091,62.3818313 74.0406091,48 C74.0406091,33.6181687 62.3818313,21.9593909 48,21.9593909 Z M48,28.9090909 C58.543618,28.9090909 67.0909091,37.456382 67.0909091,48 C67.0909091,58.543618 58.543618,67.0909091 48,67.0909091 C37.456382,67.0909091 28.9090909,58.543618 28.9090909,48 C28.9090909,37.456382 37.456382,28.9090909 48,28.9090909 Z M48,32.8484848 C39.6320492,32.8484848 32.8484848,39.6320492 32.8484848,48 C32.8484848,56.3679508 39.6320492,63.1515152 48,63.1515152 C56.3679508,63.1515152 63.1515152,56.3679508 63.1515152,48 C63.1515152,39.6320492 56.3679508,32.8484848 48,32.8484848 Z M48.6818182,37.7727273 C53.5770694,37.7727273 57.5454545,41.7411124 57.5454545,46.6363636 C57.5454545,51.5316148 53.5770694,55.5 48.6818182,55.5 C43.786567,55.5 39.8181818,51.5316148 39.8181818,46.6363636 C39.8181818,41.7411124 43.786567,37.7727273 48.6818182,37.7727273 Z M48.6818182,41.8157895 C46.0194886,41.8157895 43.861244,43.974034 43.861244,46.6363636 C43.861244,49.2986932 46.0194886,51.4569378 48.6818182,51.4569378 C51.3441478,51.4569378 53.5023923,49.2986932 53.5023923,46.6363636 C53.5023923,43.974034 51.3441478,41.8157895 48.6818182,41.8157895 Z" id="形状结合" fill="#FFFFFF" fill-rule="nonzero" opacity="0.16" mask="url(#mask-2)"></path>
                    </g>
                </g>
            </g>
        </g>
    </g>
</svg>