<?xml version="1.0" encoding="UTF-8"?>
<svg width="30px" height="29px" viewBox="0 0 30 29" version="1.1" xmlns="http://www.w3.org/2000/svg" xmlns:xlink="http://www.w3.org/1999/xlink">
    <!-- Generator: Sketch 63 (92445) - https://sketch.com -->
    <title>icon/开发者左侧导航/代码</title>
    <desc>Created with Sketch.</desc>
    <defs>
        <linearGradient x1="1.67751385%" y1="3.2943344%" x2="100%" y2="96.7056656%" id="linearGradient-1">
            <stop stop-color="#3B68B7" offset="0%"></stop>
            <stop stop-color="#163B7B" offset="100%"></stop>
        </linearGradient>
    </defs>
    <g id="实时数据开发" stroke="none" stroke-width="1" fill="none" fill-rule="evenodd">
        <g id="04-2-实时数据开发-新增" transform="translate(-17.000000, -311.000000)" fill="url(#linearGradient-1)" fill-rule="nonzero">
            <g id="编组" transform="translate(0.000000, 110.000000)">
                <g id="开发者导航/nomal备份" transform="translate(0.000000, 192.000000)">
                    <g id="icon/开发者左侧导航/资源" transform="translate(16.000000, 8.000000)">
                        <path d="M16.9896291,1.68110104 L22.5763639,4.86215999 C23.2011594,5.21791541 23.5869209,5.88165876 23.5867515,6.60063807 L23.5852256,13.0750346 L23.5852256,13.0750346 L29.3900862,16.3822412 C30.0144876,16.7379818 30.4000335,17.4013676 30.4000335,18.1199972 L30.4000335,24.4349521 C30.4000335,25.1537629 30.0142949,25.8172868 29.3896459,26.1729589 L23.8028299,29.3540641 C23.1892251,29.7034476 22.4368602,29.7033845 21.8233139,29.3538982 L16.0000168,26.0368497 L16.0000168,26.0368497 L10.1767196,29.3538982 C9.56317332,29.7033845 8.81080845,29.7034476 8.19720365,29.3540641 L2.61038763,26.1729589 C1.98573864,25.8172868 1.6,25.1537629 1.6,24.4349521 L1.6,18.1198452 C1.6,17.4012968 1.98545944,16.7379731 2.60974984,16.3822018 L8.41300793,13.0750346 L8.41300793,13.0750346 L8.41300793,6.60032275 C8.41300793,5.88151196 8.79874657,5.21798805 9.42339556,4.86231603 L15.0104044,1.68110104 C15.6239053,1.33177666 16.3761282,1.33177666 16.9896291,1.68110104 Z M8.197783,15.417849 L4.55524992,17.4895034 C3.93011747,17.8450412 3.54400226,18.5088349 3.54400226,19.2279995 L3.54400226,23.3241948 C3.54400226,24.043089 3.92982965,24.7066765 4.5545926,25.0623169 L8.19564127,27.1349496 C8.80912339,27.4841685 9.56126488,27.4841169 10.1746991,27.1348138 L13.8142635,25.0623647 C14.4388924,24.7066871 14.8246154,24.0431745 14.8246154,23.3243784 L14.8246154,19.2274488 C14.8246154,18.5085785 14.4388134,17.8450092 13.8140831,17.4893597 L10.176003,15.418256 C9.56283137,15.0691867 8.81109827,15.0690321 8.197783,15.417849 Z M21.8238762,15.4179845 L18.1828274,17.4894555 C17.557829,17.8450305 17.1718181,18.5087495 17.1718181,19.227816 L17.1718181,23.3241948 C17.1718181,24.043089 17.5576455,24.7066765 18.1824085,25.0623169 L21.8234571,27.1349496 C22.4369393,27.4841685 23.1890807,27.4841169 23.8025149,27.1348138 L27.4420794,25.0623647 C28.0667083,24.7066871 28.4524312,24.0431745 28.4524312,23.3243784 L28.4524312,19.2276325 C28.4524312,18.508664 28.0665248,17.8450199 27.4416604,17.4894076 L23.802096,15.4181202 C23.1888765,15.0691351 22.4371435,15.0690835 21.8238762,15.4179845 Z M15.0108682,3.89797114 L11.3698195,5.96944207 C10.744821,6.32501713 10.3588102,6.98873606 10.3588102,7.70780261 L10.3588102,11.8041814 C10.3588102,12.5230756 10.7446376,13.1866631 11.3694005,13.5423035 L15.0104492,15.6149362 C15.6239313,15.9641551 16.3760728,15.9641035 16.989507,15.6148004 L20.6290715,13.5423513 C21.2537003,13.1866737 21.6394233,12.523161 21.6394233,11.804365 L21.6394233,7.70761905 C21.6394233,6.98865059 21.2535169,6.32500646 20.6286525,5.96939418 L16.9890881,3.89810682 C16.3758686,3.5491217 15.6241356,3.54907014 15.0108682,3.89797114 Z" id="形状"></path>
                    </g>
                </g>
            </g>
        </g>
    </g>
</svg>