<?xml version="1.0" encoding="UTF-8"?>
<svg width="32px" height="32px" viewBox="0 0 32 32" version="1.1" xmlns="http://www.w3.org/2000/svg" xmlns:xlink="http://www.w3.org/1999/xlink">
    <!-- Generator: Sketch 55.2 (78181) - https://sketchapp.com -->
    <title>icon_dl</title>
    <desc>Created with Sketch.</desc>
    <g id="new" stroke="none" stroke-width="1" fill="none" fill-rule="evenodd">
        <g id="1-home-1" transform="translate(-978.000000, -435.000000)">
            <g id="03" transform="translate(32.000000, 392.000000)">
                <g id="3" transform="translate(946.000000, 40.000000)">
                    <rect id="矩形" opacity="0.170735677" x="0" y="3" width="32" height="32"></rect>
                    <g id="icon_dl" transform="translate(2.000000, 5.000000)" fill="#0075FF">
                        <rect id="矩形" opacity="0.2" x="0" y="2" width="28" height="24"></rect>
                        <rect id="矩形备份-27" opacity="0.2" x="10" y="20" width="8" height="8"></rect>
                        <rect id="矩形备份-30" opacity="0.2" x="10" y="0" width="8" height="8"></rect>
                        <rect id="矩形备份-28" opacity="0.2" x="20" y="20" width="8" height="8"></rect>
                        <rect id="矩形备份-29" opacity="0.2" x="0" y="20" width="8" height="8"></rect>
                        <rect id="矩形备份-8" x="12" y="2" width="4" height="4"></rect>
                        <rect id="矩形备份-23" x="12" y="22" width="4" height="4"></rect>
                        <rect id="矩形备份-24" x="22" y="22" width="4" height="4"></rect>
                        <rect id="矩形备份-25" x="2" y="22" width="4" height="4"></rect>
                        <g id="编组-9" opacity="0.600000024" transform="translate(3.000000, 5.000000)">
                            <rect id="矩形备份-9" opacity="0.6" x="10" y="0" width="2" height="20"></rect>
                            <rect id="矩形备份-12" opacity="0.6" x="0" y="9" width="2" height="10"></rect>
                            <rect id="矩形备份-26" opacity="0.6" x="20" y="9" width="2" height="10"></rect>
                        </g>
                        <g id="编组-9备份-3" opacity="0.600000024" transform="translate(14.000000, 15.000000) rotate(90.000000) translate(-14.000000, -15.000000) translate(13.000000, 4.000000)">
                            <rect id="矩形备份-10" opacity="0.6" x="-4.54747351e-13" y="0" width="2" height="22"></rect>
                        </g>
                    </g>
                </g>
            </g>
        </g>
    </g>
</svg>