<?xml version="1.0" encoding="UTF-8"?>
<svg width="16px" height="16px" viewBox="0 0 16 16" version="1.1" xmlns="http://www.w3.org/2000/svg" xmlns:xlink="http://www.w3.org/1999/xlink">
    <!-- Generator: Sketch 63 (92445) - https://sketch.com -->
    <title>icon/上传</title>
    <desc>Created with Sketch.</desc>
    <g id="icon/上传" stroke="none" stroke-width="1" fill="none" fill-rule="evenodd">
        <g id="编组备份-2" fill="#979797" fill-rule="nonzero">
            <path d="M8,0.475 C9.87339035,0.475 11.5491467,1.53616308 12.3721564,3.16029916 L12.448,3.32 L12.4827538,3.33086934 C14.2132774,3.91077421 15.4320085,5.50134993 15.5199111,7.34829601 L15.525,7.5625 C15.525,9.84232023 13.807118,11.7487547 11.5584112,11.9978068 C11.2702238,12.0297245 11.0107274,11.821977 10.9788096,11.5337896 C10.9468919,11.2456022 11.1546394,10.9861057 11.4428268,10.954188 C13.1610392,10.76389 14.475,9.30571057 14.475,7.5625 C14.475,6.09020396 13.5342881,4.80274758 12.1860782,4.3381881 L12.0079575,4.28231254 L11.6766397,4.19776555 L11.5776711,3.94960738 C10.998588,2.4975888 9.58989213,1.525 8,1.525 C6.47923361,1.525 5.12424981,2.4148544 4.50251296,3.76297307 L4.42232888,3.94960738 L4.32336031,4.19776555 L4.00530359,4.27874314 C2.5492912,4.69114427 1.525,6.02619109 1.525,7.5625 C1.525,9.30600278 2.8393821,10.7643139 4.55790977,10.9541722 C4.84610584,10.9860114 5.0539242,11.2454512 5.02208507,11.5336472 C4.99024593,11.8218433 4.73080613,12.0296617 4.44261005,11.9978225 C2.19345359,11.7493417 0.475,9.84271204 0.475,7.5625 C0.475,5.69694895 1.62963767,4.0587567 3.33049451,3.39936588 L3.55,3.32 L3.62784364,3.16029916 C4.4179329,1.60112852 5.99391353,0.560793803 7.77618373,0.480061699 L8,0.475 Z" id="路径"></path>
            <path d="M5.95283664,7.89223561 C6.23107988,7.61399236 7.00761002,7.61399236 9.77370244,7.73900199 C10.0633563,7.75209249 10.2875552,7.99751526 10.2744647,8.28716911 C10.2613742,8.57682295 10.0159514,8.80102184 9.72629756,8.78793134 L8.54910971,8.74085748 C8.02323018,8.7232119 7.59154657,8.71439897 7.25461847,8.71439897 L6.783,8.722 L6.77775525,8.89816005 L6.775,9.19401744 L6.77793837,9.56250998 C6.78577501,10.0958917 6.80929076,10.797396 6.84853237,11.6656965 C6.86162287,11.9553504 6.63742398,12.2007731 6.34777013,12.2138636 C6.05811629,12.2269541 5.81269352,12.0027553 5.79960302,11.7131014 L5.74687653,10.452149 C5.68286459,8.69405231 5.72256636,8.12250588 5.95283664,7.89223561 Z" id="路径" transform="translate(7.997206, 9.936605) rotate(-315.000000) translate(-7.997206, -9.936605) "></path>
            <path d="M8.02167181,7.475 C8.2794047,7.475 8.4937606,7.66071892 8.53821336,7.90563059 L8.54667181,8 L8.54667181,14.25 C8.54667181,14.5399495 8.31162131,14.775 8.02167181,14.775 C7.76393893,14.775 7.54958302,14.5892811 7.50513027,14.3443694 L7.49667181,14.25 L7.49667181,8 C7.49667181,7.71005051 7.73172232,7.475 8.02167181,7.475 Z" id="路径-2"></path>
        </g>
    </g>
</svg>