<?xml version="1.0" encoding="UTF-8"?>
<svg width="14px" height="14px" viewBox="0 0 14 14" version="1.1" xmlns="http://www.w3.org/2000/svg" xmlns:xlink="http://www.w3.org/1999/xlink">
    <!-- Generator: Sketch 56.2 (81672) - https://sketch.com -->
    <title>icon_formatting</title>
    <desc>Created with Sketch.</desc>
    <g id="组件" stroke="none" stroke-width="1" fill="none" fill-rule="evenodd">
        <g id="sloth/操作栏/12px" transform="translate(-513.000000, -11.000000)">
            <g id="sloth/操作栏/1">
                <g transform="translate(16.000000, 9.000000)">
                    <g id="格式化" transform="translate(497.000000, 0.000000)">
                        <g id="编组-3" transform="translate(0.000000, 2.000000)">
                            <rect id="矩形" fill="#C2D8FD" x="0" y="3" width="14" height="10"></rect>
                            <path d="M1,1 L5.38069466,1 L10,8.66059606 L0,9 L0,2 C-6.76353751e-17,1.44771525 0.44771525,1 1,1 Z" id="矩形备份" fill="#C2D8FD"></path>
                            <g id="编组-8" transform="translate(4.000000, 5.000000)" fill="#3274E6" fill-rule="nonzero">
                                <path d="M0.135476879,2.72904624 L0.729046242,2.13547688 C0.909682081,1.95484104 1.09031792,1.95484104 1.27095376,2.13547688 L1.86452312,2.72904624 C2.04515896,2.90968208 2.04515896,3.09031792 1.86452312,3.27095376 L1.27095376,3.86452312 C1.09031792,4.04515896 0.909682081,4.04515896 0.729046242,3.86452312 L0.135476879,3.27095376 C-0.0451589596,3.09031792 -0.0451589596,2.90968208 0.135476879,2.72904624 Z" id="路径" opacity="0.3"></path>
                                <path d="M4.13547688,2.72904624 L4.72904624,2.13547688 C4.90968208,1.95484104 5.09031792,1.95484104 5.27095376,2.13547688 L5.86452312,2.72904624 C6.04515896,2.90968208 6.04515896,3.09031792 5.86452312,3.27095376 L5.27095376,3.86452312 C5.09031792,4.04515896 4.90968208,4.04515896 4.72904624,3.86452312 L4.13547688,3.27095376 C3.95484104,3.09031792 3.95484104,2.90968208 4.13547688,2.72904624 Z" id="路径" opacity="0.3"></path>
                                <path d="M2.13547688,4.72904624 L2.72904625,4.13547688 C2.90968209,3.95484104 3.09031792,3.95484104 3.27095376,4.13547688 L3.86452312,4.72904624 C4.04515896,4.90968208 4.04515896,5.09031791 3.86452312,5.27095375 L3.27095376,5.86452312 C3.09031792,6.04515896 2.90968209,6.04515896 2.72904625,5.86452312 L2.13547688,5.27095375 C1.95484104,5.09031791 1.95484104,4.90968208 2.13547688,4.72904624 Z" id="路径"></path>
                                <path d="M2.13547688,0.72904625 L2.72904625,0.135476878 C2.90968209,-0.0451589594 3.09031792,-0.0451589594 3.27095376,0.135476878 L3.86452312,0.72904625 C4.04515896,0.909682087 4.04515896,1.09031792 3.86452312,1.27095376 L3.27095376,1.86452312 C3.09031792,2.04515896 2.90968209,2.04515896 2.72904625,1.86452312 L2.13547688,1.27095376 C1.95484104,1.09031792 1.95484104,0.909682087 2.13547688,0.72904625 Z" id="路径"></path>
                            </g>
                        </g>
                    </g>
                </g>
            </g>
        </g>
    </g>
</svg>