<?xml version="1.0" encoding="UTF-8"?>
<svg width="16px" height="16px" viewBox="0 0 16 16" version="1.1" xmlns="http://www.w3.org/2000/svg" xmlns:xlink="http://www.w3.org/1999/xlink">
    <!-- Generator: Sketch 56.2 (81672) - https://sketch.com -->
    <title>icon_tag_hover</title>
    <desc>Created with Sketch.</desc>
    <g id="组件" stroke="none" stroke-width="1" fill="none" fill-rule="evenodd">
        <g id="侧边栏/icon-标签备份">
            <g id="侧边栏/icon-标签" transform="translate(0.000000, -1.000000)">
                <rect id="矩形" opacity="0.298014323" x="0" y="1" width="16" height="16"></rect>
                <path d="M9.75735931,1 L13,4.24264069 L13,14 C13,14.5522847 12.5522847,15 12,15 L6,15 C5.44771525,15 5,14.5522847 5,14 L5,4.24264069 L8.24264069,1 L9.75735931,1 Z M9,6 C10.1045695,6 11,5.1045695 11,4 C11,2.8954305 10.1045695,2 9,2 C7.8954305,2 7,2.8954305 7,4 C7,5.1045695 7.8954305,6 9,6 Z" id="形状结合备份" fill="#0075FF" opacity="0.4" transform="translate(9.000000, 8.000000) rotate(45.000000) translate(-9.000000, -8.000000) "></path>
                <path d="M10.1715729,-1 L12,0.828427125 L12,12 C12,12.5522847 11.5522847,13 11,13 L5,13 C4.44771525,13 4,12.5522847 4,12 L4,0.828427125 L5.82842712,-1 L10.1715729,-1 Z M7,4 C7.55228475,4 8,3.55228475 8,3 C8,2.44771525 7.55228475,2 7,2 C6.44771525,2 6,2.44771525 6,3 C6,3.55228475 6.44771525,4 7,4 Z" id="形状结合备份-2" fill="#0075FF" opacity="0.2" transform="translate(8.000000, 6.000000) rotate(90.000000) translate(-8.000000, -6.000000) "></path>
                <path d="M13.1715729,2 L15,3.82842712 L15,15 C15,15.5522847 14.5522847,16 14,16 L8,16 C7.44771525,16 7,15.5522847 7,15 L7,3.82842712 L8.82842712,2 L13.1715729,2 Z M11,6 C11.5522847,6 12,5.55228475 12,5 C12,4.44771525 11.5522847,4 11,4 C10.4477153,4 10,4.44771525 10,5 C10,5.55228475 10.4477153,6 11,6 Z" id="形状结合" fill="#0075FF"></path>
            </g>
        </g>
    </g>
</svg>