<?xml version="1.0" encoding="UTF-8"?>
<svg width="14px" height="14px" viewBox="0 0 14 14" version="1.1" xmlns="http://www.w3.org/2000/svg" xmlns:xlink="http://www.w3.org/1999/xlink">
    <!-- Generator: Sketch 56.2 (81672) - https://sketch.com -->
    <title>icon_test</title>
    <desc>Created with Sketch.</desc>
    <g id="组件" stroke="none" stroke-width="1" fill="none" fill-rule="evenodd">
        <g id="sloth/操作栏/12px" transform="translate(-226.000000, -11.000000)" fill-rule="nonzero">
            <g id="sloth/操作栏/1">
                <g transform="translate(16.000000, 9.000000)">
                    <g id="保存备份" transform="translate(210.000000, 0.000000)">
                        <g id="配置调试" transform="translate(0.000000, 2.000000)">
                            <path d="M5.2287373,4.75849056 L2.16690856,4.75849056 L1.3065312,1.48766328 L1.97880987,1.31001452 L2.70682148,4.06182873 L5.2287373,4.06182873 L5.2287373,4.75849056 L5.2287373,4.75849056 Z M12.1674891,4.75849056 L9.10566038,4.75849056 L9.10566038,4.06182873 L11.6310595,4.06182873 L12.3555878,1.31001452 L13.0278665,1.48766328 L12.1674891,4.75849056 L12.1674891,4.75849056 Z M1.97880987,13 L1.3065312,12.8223512 L2.16690856,9.55152395 L5.2287373,9.55152395 L5.2287373,10.2481858 L2.70682148,10.2481858 L1.97880987,13 Z M12.3555878,13 L11.6310595,10.2481858 L9.10566038,10.2481858 L9.10566038,9.55152395 L12.1674891,9.55152395 L13.0278665,12.8223512 L12.3555878,13 L12.3555878,13 Z M1,7.10972424 L3.83193033,7.10972424 L3.83193033,7.80638607 L1,7.80638607 L1,7.10972424 Z M10.5338171,7.10972424 L13.3692308,7.10972424 L13.3692308,7.80638607 L10.5338171,7.80638607 L10.5338171,7.10972424 Z" id="形状" fill="#C2D8FD"></path>
                            <path d="M5.00232221,3.26415094 C5.00232221,4.51460698 6.01601711,5.52830188 7.26647315,5.52830188 C8.51692918,5.52830188 9.53062409,4.51460698 9.53062409,3.26415094 C9.53062409,2.01369491 8.51692918,1 7.26647315,1 C6.01601711,1 5.00232221,2.01369491 5.00232221,3.26415094 Z" id="路径" fill="#337EFF"></path>
                            <path d="M3.42089985,7.49985487 C3.42089985,9.90073047 5.13170495,11.8470247 7.24208999,11.8470247 C9.35247502,11.8470247 11.0632801,9.90073047 11.0632801,7.49985487 C11.0632801,5.09897927 9.35247502,3.15268504 7.24208999,3.15268504 C5.13170495,3.15268504 3.42089985,5.09897927 3.42089985,7.49985487 Z" id="路径" fill="#C2D8FD"></path>
                        </g>
                    </g>
                </g>
            </g>
        </g>
    </g>
</svg>