<?xml version="1.0" encoding="UTF-8"?>
<svg width="14px" height="14px" viewBox="0 0 14 14" version="1.1" xmlns="http://www.w3.org/2000/svg" xmlns:xlink="http://www.w3.org/1999/xlink">
    <!-- Generator: Sketch 56.2 (81672) - https://sketch.com -->
    <title>icon_online</title>
    <desc>Created with Sketch.</desc>
    <g id="组件" stroke="none" stroke-width="1" fill="none" fill-rule="evenodd">
        <g id="sloth/操作栏/12px" transform="translate(-374.000000, -11.000000)">
            <g id="sloth/操作栏/1">
                <g transform="translate(16.000000, 9.000000)">
                    <g id="上线" transform="translate(358.000000, 0.000000)">
                        <g id="编组" transform="translate(0.000000, 2.000000)">
                            <path d="M3,10.9916276 C1.32339794,10.8695451 0,9.42756025 0,7.66666667 C0,5.8257175 1.44646465,4.33333333 3.23076923,4.33333333 C3.32230409,4.33333333 3.41294987,4.33726083 3.50255688,4.3449614 C4.16463849,2.39690243 5.96266821,1 8.07692308,1 C10.4604146,1 12.4420145,2.77532804 12.847269,5.11424617 C13.5520755,5.72570851 14,6.64221779 14,7.66666667 C14,9.42756025 12.6766021,10.8695451 11,10.9916276 L11,11 L3,11 L3,10.9916276 Z" id="形状结合" fill="#C2D8FD"></path>
                            <path d="M8,9.87573593 L8,12.8757359 L6,12.8757359 L6,9.87573593 L5,9.87573593 L6.78786797,8.08786797 C6.90502525,7.97071068 7.09497475,7.97071068 7.21213203,8.08786797 L9,9.87573593 L8,9.87573593 Z" id="形状结合" fill="#337EFF"></path>
                        </g>
                    </g>
                </g>
            </g>
        </g>
    </g>
</svg>