<?xml version="1.0" encoding="UTF-8"?>
<svg width="30px" height="30px" viewBox="0 0 30 30" version="1.1" xmlns="http://www.w3.org/2000/svg" xmlns:xlink="http://www.w3.org/1999/xlink">
    <!-- Generator: Sketch 63 (92445) - https://sketch.com -->
    <title>icon/开发者左侧导航/代码</title>
    <desc>Created with Sketch.</desc>
    <defs>
        <linearGradient x1="28.5233395%" y1="0%" x2="72.2222222%" y2="100%" id="linearGradient-1">
            <stop stop-color="#3B68B7" offset="0%"></stop>
            <stop stop-color="#163B7B" offset="100%"></stop>
        </linearGradient>
        <linearGradient x1="7.9057454%" y1="0%" x2="93.5555556%" y2="100%" id="linearGradient-2">
            <stop stop-color="#3B68B7" offset="0%"></stop>
            <stop stop-color="#163B7B" offset="100%"></stop>
        </linearGradient>
    </defs>
    <g id="实时数据开发" stroke="none" stroke-width="1" fill="none" fill-rule="evenodd">
        <g id="04-2-实时数据开发-新增" transform="translate(-17.000000, -183.000000)">
            <g id="编组" transform="translate(0.000000, 110.000000)">
                <g id="开发者导航/seleced" transform="translate(0.000000, 64.000000)">
                    <g id="icon/开发者左侧导航/SQL" transform="translate(16.000000, 8.000000)">
                        <g id="sql" stroke-width="1" fill-rule="evenodd" transform="translate(16.000000, 12.800000)" fill="url(#linearGradient-1)">
                            <path d="M2.22137862,2.22993062 C2.22137862,1.69474727 2.75844156,1.67690783 3.06533467,1.69474727 C3.23914381,1.70425634 3.84212442,1.7099639 4.87427649,1.71186996 C5.34681712,1.7127766 5.73059444,1.33041409 5.73146707,0.857873398 C5.73146805,0.857346719 5.73146853,0.85682004 5.73146853,0.85629336 C5.73146853,0.383375596 5.34809294,1.35641635e-15 4.87517517,0 L2.16383616,0 L2.16383616,0 C1.56923077,0 0.399200799,0.64222002 0.0731268731,1.67690783 C-0.137862138,2.39048563 0.169030969,3.08622398 0.226573427,3.22893954 C0.322477522,3.44301288 0.495104895,3.76412289 0.974625375,4.21010902 C2.27892108,5.45887017 3.6983017,5.65510406 3.87092907,6.44003964 C3.89010989,6.51139742 3.92847153,6.70763132 3.81338661,6.88602577 C3.65994006,7.11793855 3.31468531,7.20713578 3.08451548,7.20713578 L0.926737485,7.20713578 C0.434114814,7.20713578 0.0347652348,7.60648536 0.0347652348,8.09910803 C0.0347652348,8.5932091 0.433979924,8.99446022 0.928074505,8.99699216 C2.00082978,9.00245051 2.8858772,9.00047988 3.58321678,8.99108028 C4.90669331,8.97324083 6,7.95639247 6,6.74331021 C6,5.53022795 5.65474525,4.87016848 4.27372627,4.01387512 C2.87352647,3.15758176 2.22137862,2.74727453 2.22137862,2.22993062 Z" id="形状" fill-rule="nonzero"></path>
                        </g>
                        <path d="M25.0947368,6.4 L13.3052632,6.4 C10.3752472,6.4 8,8.78781467 8,11.7333333 L8,25.0666667 C8,28.0121853 10.3752472,30.4 13.3052632,30.4 L25.0947368,30.4 C28.0247528,30.4 30.4,28.0121853 30.4,25.0666667 L30.4,11.7333333 C30.4,8.78781467 28.0247528,6.4 25.0947368,6.4 Z M13.3052632,8.17777778 L25.0947368,8.17777778 C27.0480808,8.17777778 28.6315789,9.76965422 28.6315789,11.7333333 L28.6315789,25.0666667 C28.6315789,27.0303458 27.0480808,28.6222222 25.0947368,28.6222222 L13.3052632,28.6222222 C11.3519192,28.6222222 9.76842105,27.0303458 9.76842105,25.0666667 L9.76842105,11.7333333 C9.76842105,9.76965422 11.3519192,8.17777778 13.3052632,8.17777778 Z" id="矩形备份-17" fill="url(#linearGradient-2)" fill-rule="nonzero"></path>
                        <path d="M19.4868345,1.6 C21.1772732,1.6 22.7448766,2.34945574 23.7920121,3.61420531 C24.114781,4.00405164 24.0553257,4.57760237 23.6592149,4.89526673 C23.263104,5.21293109 22.6803368,5.15441604 22.3575678,4.76456972 C21.7164609,3.99022889 20.7864715,3.506624 19.7669545,3.43140055 L19.4868345,3.42109861 L7.15108656,3.42109861 C5.19239349,3.42109861 3.58910659,4.91870793 3.45889986,6.81392865 L3.45036219,7.06329583 L3.45036219,20.7215354 C3.45036219,22.0512072 4.17976241,23.2543329 5.33564935,23.8962904 C5.78064884,24.1434346 5.93782279,24.6988227 5.68670717,25.1367845 C5.43559156,25.5747463 4.87127876,25.7294346 4.42627926,25.4822904 C2.79091357,24.5740395 1.72360065,22.9129384 1.61005775,21.0519142 L1.6,20.7215354 L1.6,7.06329583 C1.6,4.14333295 3.92754994,1.75840099 6.85627416,1.60757287 L7.15108656,1.6 L19.4868345,1.6 Z" id="形状" fill="url(#linearGradient-2)" fill-rule="nonzero"></path>
                    </g>
                </g>
            </g>
        </g>
    </g>
</svg>