<?xml version="1.0" encoding="UTF-8"?>
<svg width="28px" height="28px" viewBox="0 0 28 28" version="1.1" xmlns="http://www.w3.org/2000/svg" xmlns:xlink="http://www.w3.org/1999/xlink">
    <!-- Generator: Sketch 63 (92445) - https://sketch.com -->
    <title>icon/开发者左侧导航/代码</title>
    <desc>Created with Sketch.</desc>
    <defs>
        <linearGradient x1="34.221229%" y1="0%" x2="66.3265306%" y2="100%" id="linearGradient-1">
            <stop stop-color="#3B68B7" offset="0%"></stop>
            <stop stop-color="#163B7B" offset="100%"></stop>
        </linearGradient>
        <linearGradient x1="1.67751385%" y1="0%" x2="100%" y2="100%" id="linearGradient-2">
            <stop stop-color="#3B68B7" offset="0%"></stop>
            <stop stop-color="#163B7B" offset="100%"></stop>
        </linearGradient>
    </defs>
    <g id="实时数据开发" stroke="none" stroke-width="1" fill="none" fill-rule="evenodd">
        <g id="04-2-实时数据开发-新增" transform="translate(-18.000000, -248.000000)" fill-rule="nonzero">
            <g id="编组" transform="translate(0.000000, 110.000000)">
                <g id="开发者导航/nomal" transform="translate(0.000000, 128.000000)">
                    <g id="icon/开发者左侧导航/JAR" transform="translate(16.000000, 8.000000)">
                        <path d="M19.2,16.2406061 L19.196982,16.6028837 C19.1381299,19.4317767 18.0621924,20.8323536 15.9691632,20.799433 C14.8225918,20.8193881 13.7930162,19.8740526 12.8804365,17.9634265 C12.6616394,17.5053455 12.8556194,16.9566281 13.3137012,16.7378327 C13.356203,16.7175324 13.4002024,16.7005289 13.4453105,16.6869725 C13.9692116,16.5295239 14.5244418,16.811139 14.7069243,17.3268546 C15.0291946,18.2377151 15.4096988,18.6851317 15.8484371,18.6691045 C16.7629088,18.7037722 17.2065634,17.8596115 17.1809092,16.1418228 L17.1809092,10.6095454 C17.1809092,10.0519889 17.6328981,9.6 18.1904546,9.6 C18.7480111,9.6 19.2,10.0519889 19.2,10.6095454 L19.2,16.2406061 L19.2,16.2406061 Z" id="形状备份" fill="url(#linearGradient-1)"></path>
                        <path d="M28.8,17.999401 C29.277174,17.999401 29.6730348,18.3475444 29.7474352,18.8036841 L29.76,18.959401 L29.76,24 C29.76,27.0785421 27.3448534,29.5929965 24.3059076,29.7520159 L24,29.76 L8,29.76 C4.92145791,29.76 2.40700353,27.3448534 2.24798414,24.3059076 L2.24,24 L2.24,18.959401 C2.24,18.4292077 2.66980664,17.999401 3.2,17.999401 C3.67717402,17.999401 4.0730348,18.3475444 4.14743522,18.8036841 L4.16,18.959401 L4.16,24 C4.16,26.0324079 5.73894245,27.696034 7.73709003,27.831141 L8,27.84 L24,27.84 C26.0324079,27.84 27.696034,26.2610576 27.831141,24.26291 L27.84,24 L27.84,18.959401 C27.84,18.4292077 28.2698066,17.999401 28.8,17.999401 Z M24,2.24 C27.0785421,2.24 29.5929965,4.65514657 29.7520159,7.69409243 L29.76,8 L29.76,13.0141815 C29.76,13.5443749 29.3301934,13.9741815 28.8,13.9741815 C28.322826,13.9741815 27.9269652,13.6260381 27.8525648,13.1698985 L27.84,13.0141815 L27.84,8 C27.84,5.96759212 26.2610576,4.30396601 24.26291,4.16885899 L24,4.16 L8,4.16 C5.96759212,4.16 4.30396601,5.73894245 4.16885899,7.73709003 L4.16,8 L4.16,13.0141815 C4.16,13.5443749 3.73019336,13.9741815 3.2,13.9741815 C2.72282598,13.9741815 2.3269652,13.6260381 2.25256478,13.1698985 L2.24,13.0141815 L2.24,8 C2.24,4.92145791 4.65514657,2.40700353 7.69409243,2.24798414 L8,2.24 L24,2.24 Z" id="形状" fill="url(#linearGradient-2)"></path>
                    </g>
                </g>
            </g>
        </g>
    </g>
</svg>