<?xml version="1.0" encoding="UTF-8"?>
<svg width="12px" height="12px" viewBox="0 0 12 12" version="1.1" xmlns="http://www.w3.org/2000/svg" xmlns:xlink="http://www.w3.org/1999/xlink">
    <!-- Generator: Sketch 56.2 (81672) - https://sketch.com -->
    <title>图标/jar</title>
    <desc>Created with Sketch.</desc>
    <g id="图标/jar" stroke="none" stroke-width="1" fill="none" fill-rule="evenodd">
        <g id="图标/sql">
            <rect id="矩形" fill="#FFA91C" x="0" y="0" width="12" height="12" rx="2"></rect>
            <path d="M6.792,3 L7.448,3 L7.448,6.888 C7.448,7.512 7.32,7.976 7.064,8.296 C6.776,8.648 6.312,8.824 5.68,8.824 C5.144,8.824 4.736,8.672 4.448,8.384 C4.144,8.08 4,7.648 4,7.088 L4,6.888 L4.656,6.888 L4.656,7.08 C4.656,7.848 5,8.24 5.696,8.24 C6.08,8.24 6.36,8.12 6.536,7.896 C6.704,7.68 6.792,7.336 6.792,6.864 L6.792,3 Z" id="J" fill="#FFFFFF" fill-rule="nonzero"></path>
        </g>
    </g>
</svg>