<?xml version="1.0" encoding="UTF-8"?>
<svg width="16px" height="16px" viewBox="0 0 16 16" version="1.1" xmlns="http://www.w3.org/2000/svg" xmlns:xlink="http://www.w3.org/1999/xlink">
    <!-- Generator: Sketch 56.2 (81672) - https://sketch.com -->
    <title>jar</title>
    <desc>Created with Sketch.</desc>
    <g id="new" stroke="none" stroke-width="1" fill="none" fill-rule="evenodd">
        <g id="cut" transform="translate(-142.000000, -538.000000)" fill="#000000">
            <g id="jat" transform="translate(142.000000, 538.000000)">
                <g id="jar" transform="translate(1.000000, 1.000000)">
                    <path d="M5,0 L5,1 L2,1 C1.43429525,1 1,1.40031425 1,1.84615385 L1,11.1538462 C1,11.6019425 1.43207951,12 2,12 L10,12 C10.5657621,12 11,11.6001341 11.0000058,11.1504486 L11.0076513,8.90016043 L12.0076456,8.903558 L12,11.1538462 C12,12.1739072 11.0980496,13 10,13 L2,13 C0.899249601,13 -3.37507799e-14,12.1751914 -3.37507799e-14,11.1538462 L-3.37507799e-14,1.84615385 C-3.37507799e-14,0.82769192 0.900817337,0 2,0 L5,0 Z" id="Rectangle-21-Copy" transform="translate(6.003823, 6.500000) scale(1, -1) translate(-6.003823, -6.500000) "></path>
                    <path d="M4.124,6.716 L4.778,6.716 L4.778,9.62 C4.778,10.1 4.676,10.46 4.478,10.7 C4.25,10.952 3.89,11.084 3.398,11.084 C2.972,11.084 2.648,10.964 2.432,10.73 C2.204,10.49 2.09,10.166 2.09,9.746 L2.09,9.602 L2.744,9.602 L2.744,9.74 C2.744,10.25 2.966,10.508 3.41,10.508 C3.662,10.508 3.842,10.43 3.956,10.286 C4.064,10.142 4.124,9.914 4.124,9.596 L4.124,6.716 Z M6.848,6.716 L7.592,6.716 L9.242,11 L8.54,11 L8.138,9.896 L6.296,9.896 L5.894,11 L5.198,11 L6.848,6.716 Z M6.494,9.356 L7.94,9.356 L7.232,7.418 L7.208,7.418 L6.494,9.356 Z M9.662,6.716 L11.558,6.716 C11.99,6.716 12.338,6.812 12.59,7.01 C12.854,7.226 12.986,7.532 12.986,7.94 C12.986,8.168 12.926,8.366 12.806,8.54 C12.668,8.732 12.482,8.858 12.248,8.918 L12.248,8.93 C12.632,9.014 12.842,9.266 12.89,9.686 L12.962,10.37 C12.986,10.634 13.07,10.844 13.214,11 L12.506,11 C12.404,10.868 12.344,10.676 12.32,10.436 L12.266,9.902 C12.242,9.662 12.164,9.494 12.038,9.386 C11.906,9.278 11.72,9.23 11.474,9.23 L10.316,9.23 L10.316,11 L9.662,11 L9.662,6.716 Z M10.316,7.274 L10.316,8.672 L11.474,8.672 C11.762,8.672 11.978,8.606 12.122,8.486 C12.26,8.366 12.332,8.192 12.332,7.964 C12.332,7.724 12.26,7.55 12.128,7.442 C11.984,7.328 11.768,7.274 11.468,7.274 L10.316,7.274 Z" id="JAR" fill-rule="nonzero"></path>
                </g>
            </g>
        </g>
    </g>
</svg>