<?xml version="1.0" encoding="UTF-8"?>
<svg width="28px" height="28px" viewBox="0 0 28 28" version="1.1" xmlns="http://www.w3.org/2000/svg" xmlns:xlink="http://www.w3.org/1999/xlink">
    <!-- Generator: Sketch 56.2 (81672) - https://sketch.com -->
    <title>logo</title>
    <desc>Created with Sketch.</desc>
    <g id="组件" stroke="none" stroke-width="1" fill="none" fill-rule="evenodd">
        <g id="sloth/导航-总览" transform="translate(-24.000000, -14.000000)" fill="#FFFFFF">
            <g id="logo" transform="translate(24.000000, 14.000000)">
                <path d="M1,23.7451172 C0.723857625,23.7451172 0.5,23.9689748 0.5,24.2451172 C0.5,24.5212596 0.723857625,24.7451172 1,24.7451172 L5.14594469,24.7451172 C5.2929963,24.7451172 5.43259205,24.6803843 5.52759409,24.56814 L7.91696176,21.7451172 L15,21.7451172 C15.2761424,21.7451172 15.5,21.5212596 15.5,21.2451172 C15.5,20.9689748 15.2761424,20.7451172 15,20.7451172 L7.68510342,20.7451172 C7.53805181,20.7451172 7.39845606,20.8098501 7.30345401,20.9220944 L4.91408635,23.7451172 L1,23.7451172 Z" id="路径-5备份" fill-rule="nonzero" transform="translate(8.000000, 22.745117) scale(1, -1) translate(-8.000000, -22.745117) "></path>
                <g id="编组-5" transform="translate(1.000000, 3.000000)">
                    <path d="M8.8390814,7.5 L2.27373675e-13,7.5 C-0.276142375,7.5 -0.5,7.72385763 -0.5,8 C-0.5,8.27614237 -0.276142375,8.5 2.27373675e-13,8.5 L9.14594469,8.5 C9.33420625,8.5 9.5065098,8.39425273 9.59175298,8.2263956 L11.9919667,3.5 L19,3.5 C19.2761424,3.5 19.5,3.27614237 19.5,3 C19.5,2.72385763 19.2761424,2.5 19,2.5 L11.6851034,2.5 C11.4968419,2.5 11.3245383,2.60574727 11.2392951,2.7736044 L8.8390814,7.5 Z" id="路径-5" fill-rule="nonzero"></path>
                    <circle id="椭圆形" opacity="0.7" cx="19" cy="3" r="2"></circle>
                    <circle id="椭圆形备份" opacity="0.4" cx="19" cy="3" r="3"></circle>
                </g>
                <circle id="椭圆形备份-4" opacity="0.7" cx="25" cy="16" r="3"></circle>
                <circle id="椭圆形备份-5" opacity="0.916773624" cx="25" cy="16" r="1"></circle>
                <circle id="椭圆形备份-2" opacity="0.7" cx="15" cy="24" r="2"></circle>
                <circle id="椭圆形备份-3" opacity="0.4" cx="15" cy="24" r="4"></circle>
                <path d="M1,16.5 L23,16.5 C23.2761424,16.5 23.5,16.2761424 23.5,16 C23.5,15.7238576 23.2761424,15.5 23,15.5 L1,15.5 C0.723857625,15.5 0.5,15.7238576 0.5,16 C0.5,16.2761424 0.723857625,16.5 1,16.5 Z" id="路径-6" fill-rule="nonzero"></path>
                <g id="编组-6">
                    <circle id="椭圆形备份-7" opacity="0.45172061" cx="8" cy="3" r="3"></circle>
                    <circle id="椭圆形备份-6" opacity="0.916773624" cx="8" cy="3" r="1"></circle>
                    <path d="M1,3.5 L3.83789063,3.5 C4.114033,3.5 4.33789063,3.27614237 4.33789063,3 C4.33789063,2.72385763 4.114033,2.5 3.83789063,2.5 L1,2.5 C0.723857625,2.5 0.5,2.72385763 0.5,3 C0.5,3.27614237 0.723857625,3.5 1,3.5 Z" id="路径-6备份" fill-rule="nonzero"></path>
                </g>
            </g>
        </g>
    </g>
</svg>