<?xml version="1.0" encoding="UTF-8"?>
<svg width="76px" height="57px" viewBox="0 0 76 57" version="1.1" xmlns="http://www.w3.org/2000/svg" xmlns:xlink="http://www.w3.org/1999/xlink">
    <!-- Generator: Sketch 60 (88103) - https://sketch.com -->
    <title>编组 6备份 2</title>
    <desc>Created with Sketch.</desc>
    <defs>
        <rect id="path-1" x="0" y="0" width="80" height="80"></rect>
    </defs>
    <g id="工作台" stroke="none" stroke-width="1" fill="none" fill-rule="evenodd">
        <g id="03-1-1API开发-暂无接口方法" transform="translate(-350.000000, -804.000000)">
            <g id="编组-4" transform="translate(325.000000, 790.000000)">
                <g id="编组备份-2">
                    <g id="编组-6备份-2" transform="translate(23.000000, 0.000000)">
                        <mask id="mask-2" fill="white">
                            <use xlink:href="#path-1"></use>
                        </mask>
                        <use id="蒙版" fill="#D8D8D8" opacity="0" xlink:href="#path-1"></use>
                        <g id="编组-6" mask="url(#mask-2)">
                            <g transform="translate(2.000000, 14.666667)">
                                <circle id="椭圆形" stroke="#E1E3E6" stroke-width="1.33333333" fill="none" cx="19.3333333" cy="2.66666667" r="2"></circle>
                                <circle id="椭圆形备份" stroke="#E1E3E6" stroke-width="1.33333333" fill="none" cx="54.6666667" cy="7.33333333" r="1.33333333"></circle>
                                <g id="kong" stroke="none" stroke-width="1" fill="none" fill-rule="evenodd" transform="translate(3.333333, 15.333333)">
                                    <path d="M0,33.9420527 C0,36.1629263 6.34097522,38.2150982 16.6343421,39.325535 C26.9277089,40.4359718 39.6096599,40.4359718 49.9030268,39.325535 C60.1963937,38.2150982 66.5373689,36.1629263 66.5373689,33.9420527 C66.5373689,30.5088797 51.6424715,27.725743 33.2686844,27.725743 C14.8948974,27.725743 0,30.5088797 0,33.9420527 L0,33.9420527 Z" id="路径" fill-opacity="0.8" fill="#F5F5F7" fill-rule="nonzero"></path>
                                    <path d="M59.8839962,15.6791958 L48.1433931,1.23062354 C47.5919846,0.549486668 46.7660726,0.149044515 45.8897873,0.1379662 L20.6475816,0.1379662 C19.7712962,0.149044515 18.9453843,0.549486668 18.3939758,1.23062354 L6.65428322,15.6791958 L6.65428322,23.2285475 L59.8839962,23.2285475 L59.8839962,15.6791958 L59.8839962,15.6791958 Z" id="路径" fill="#C0C5CA" fill-rule="nonzero"></path>
                                    <path d="M59.775641,33.0305944 C59.3950321,34.537551 58.0592584,35.6602564 56.4703526,35.6602564 L10.0670163,35.6602564 C8.47811043,35.6602564 7.14233683,34.5366404 6.7626384,33.0305944 C6.68999,32.7433527 6.65337252,32.4482021 6.65337252,32.1519158 L6.65337252,15.6801064 L19.5685825,15.6801064 C20.9945003,15.6801064 22.1445221,16.8811189 22.1445221,18.3398164 L22.1445221,18.3589379 C22.1318938,19.801878 23.2911834,20.9819566 24.73412,20.9949738 L41.8032488,20.9949738 C43.2300772,20.9949738 44.3928467,19.8112617 44.3928467,18.3480114 L44.3928467,18.3425481 C44.3928467,16.8856716 45.5428686,15.6791958 46.9687864,15.6791958 L59.8839962,15.6791958 L59.8839962,32.1519158 C59.8839962,32.4481335 59.8474898,32.7432223 59.775641,33.0305944 L59.775641,33.0305944 Z" id="形状" fill="#E1E3E6" fill-rule="nonzero"></path>
                                </g>
                                <path d="M71.6228428,10.4241234 L71.6228428,9.0132483 C71.5877325,8.66336639 71.7552256,8.32409482 72.0543396,8.13921416 C72.3540827,7.95359528 72.7330548,7.95359528 73.0327978,8.13921416 C73.3320715,8.32417043 73.4995881,8.66366844 73.4642947,9.01370832 L73.4642947,10.4241234 L74.8885103,10.4241234 C75.1313787,10.4235127 75.3645358,10.5194379 75.536658,10.6907837 C75.7087803,10.8621295 75.8057588,11.0948504 75.8062462,11.3377191 C75.804724,11.8431211 75.3939131,12.2516669 74.8885103,12.2503948 L73.4642947,12.2503948 L73.4642947,13.6603498 C73.4642947,14.1663696 73.0516586,14.5767085 72.5437987,14.5767085 C72.3000763,14.5773163 72.0661002,14.4810518 71.8933741,14.3091022 C71.7206479,14.1371525 71.6233302,13.9036125 71.6228428,13.6598898 L71.6228428,12.2490147 L70.1981671,12.2490147 C69.7135443,12.2217246 69.3342712,11.8212687 69.3333333,11.335879 C69.3333333,10.8514801 69.7123881,10.4512645 70.1981671,10.4232034 L71.6228428,10.4232034 L71.6228428,10.4241234 L71.6228428,10.4241234 Z" id="路径" stroke="none" fill="#C0C5CA" fill-rule="nonzero"></path>
                                <path d="M2.28950943,19.7574567 L2.28950943,18.3465816 C2.25439921,17.9966997 2.42189222,17.6574282 2.72100629,17.4725475 C3.02074934,17.2869286 3.39972146,17.2869286 3.69946451,17.4725475 C3.99873817,17.6575038 4.16625481,17.9970018 4.13096137,18.3470417 L4.13096137,19.7574567 L5.555177,19.7574567 C5.79804542,19.756846 6.03120246,19.8527713 6.20332471,20.024117 C6.37544697,20.1954628 6.47242544,20.4281837 6.47291285,20.6710524 C6.47139062,21.1764545 6.06057972,21.5850002 5.555177,21.5837281 L4.13096137,21.5837281 L4.13096137,22.9936832 C4.13096137,23.4997029 3.71832525,23.9100418 3.21046541,23.9100418 C2.96674296,23.9106497 2.73276687,23.8143852 2.56004072,23.6424355 C2.38731458,23.4704859 2.28999685,23.2369459 2.28950943,22.9932231 L2.28950943,21.582348 L0.864833783,21.582348 C0.380211003,21.5550579 0.00093791557,21.154602 1.29674049e-13,20.6692124 C1.29674049e-13,20.1848134 0.379054807,19.7845978 0.864833783,19.7565367 L2.28950943,19.7565367 L2.28950943,19.7574567 L2.28950943,19.7574567 Z" id="路径备份" stroke="none" fill="#E1E3E6" fill-rule="nonzero"></path>
                                <path d="M32.7481582,9.47436877 L32.7481582,8.61626469 C32.7264614,8.40346406 32.8299654,8.19711673 33.0148059,8.08467102 C33.200035,7.97177633 33.4342246,7.97177633 33.6194537,8.08467102 C33.8043928,8.19716272 33.9079114,8.40364778 33.8861014,8.61654447 L33.8861014,9.47436877 L34.7662095,9.47436877 C34.9162924,9.47399733 35.0603741,9.53233973 35.1667387,9.63655342 C35.2731033,9.74076711 35.3330321,9.88230961 35.3333333,10.030024 C35.3323927,10.3374131 35.078528,10.5858935 34.7662095,10.5851197 L33.8861014,10.5851197 L33.8861014,11.4426643 C33.8861014,11.750429 33.6311089,12 33.3172719,12 C33.1666613,12.0003697 33.0220734,11.9418209 32.9153356,11.83724 C32.8085978,11.732659 32.7484594,11.5906183 32.7481582,11.4423845 L32.7481582,10.5842804 L31.8677659,10.5842804 C31.5682885,10.5676823 31.3339129,10.3241223 31.3333333,10.0289049 C31.3333333,9.7342901 31.567574,9.49087616 31.8677659,9.4738092 L32.7481582,9.4738092 L32.7481582,9.47436877 L32.7481582,9.47436877 Z" id="路径备份-2" stroke="none" fill="#E1E3E6" fill-rule="nonzero"></path>
                                <path d="M44.7481582,25.4743688 L44.7481582,24.6162647 C44.7264614,24.4034641 44.8299654,24.1971167 45.0148059,24.084671 C45.200035,23.9717763 45.4342246,23.9717763 45.6194537,24.084671 C45.8043928,24.1971627 45.9079114,24.4036478 45.8861014,24.6165445 L45.8861014,25.4743688 L46.7662095,25.4743688 C46.9162924,25.4739973 47.0603741,25.5323397 47.1667387,25.6365534 C47.2731033,25.7407671 47.3330321,25.8823096 47.3333333,26.030024 C47.3323927,26.3374131 47.078528,26.5858935 46.7662095,26.5851197 L45.8861014,26.5851197 L45.8861014,27.4426643 C45.8861014,27.750429 45.6311089,28 45.3172719,28 C45.1666613,28.0003697 45.0220734,27.9418209 44.9153356,27.83724 C44.8085978,27.732659 44.7484594,27.5906183 44.7481582,27.4423845 L44.7481582,26.5842804 L43.8677659,26.5842804 C43.5682885,26.5676823 43.3339129,26.3241223 43.3333333,26.0289049 C43.3333333,25.7342901 43.567574,25.4908762 43.8677659,25.4738092 L44.7481582,25.4738092 L44.7481582,25.4743688 L44.7481582,25.4743688 Z" id="路径备份-3" stroke="none" fill="#FFFFFF" fill-rule="nonzero" opacity="0.515820324"></path>
                            </g>
                        </g>
                    </g>
                </g>
            </g>
        </g>
    </g>
</svg>