<?xml version="1.0" encoding="UTF-8"?>
<svg width="200px" height="160px" viewBox="0 0 200 160" version="1.1" xmlns="http://www.w3.org/2000/svg" xmlns:xlink="http://www.w3.org/1999/xlink">
    <!-- Generator: Sketch 48.2 (47327) - http://www.bohemiancoding.com/sketch -->
    <title>空态-文件夹</title>
    <desc>Created with Sketch.</desc>
    <defs>
        <filter x="-5.0%" y="-100.0%" width="110.0%" height="300.0%" filterUnits="objectBoundingBox" id="filter-1">
            <feGaussianBlur stdDeviation="2" in="SourceGraphic"></feGaussianBlur>
        </filter>
        <path d="M83.9441781,42.947575 L135.59598,42.947575 C140.010218,42.947575 143.588665,46.5270795 143.588665,50.9561513 L143.588665,105.652677 C143.588665,110.075692 140.00291,113.661254 135.59598,113.661254 L49.992685,113.661254 C45.578447,113.661254 42,110.081749 42,105.652677 L42,43.9435423 L42,33.9956596 C42,31.7889177 43.7924445,30 45.9994382,30 L69.4675258,30 C71.1272758,30 73.3612256,31.0027852 74.4576247,32.2402713 L83.9441781,42.947575 Z" id="path-2"></path>
        <path d="M91.0766545,42.947575 L92.1061399,44.1095368 L138.831361,44.1095368 C141.685333,45.6951059 143.616894,48.7431614 143.616894,52.2466697 L143.616894,104.362159 C143.616894,109.497907 139.445104,113.661254 134.332268,113.661254 L54.9474946,113.661254 C52.0935233,112.075685 50.1619619,109.027629 50.1619619,105.524121 L50.1619619,35.8049595 C50.1619619,33.2407027 52.2325217,31.1619619 54.8066941,31.1619619 L72.9458748,31.1619619 C73.6813028,31.5751561 74.3365106,32.0717106 74.8101657,32.6063167 L83.9724069,42.947575 L91.0766545,42.947575 Z" id="path-4"></path>
        <path d="M83.9441781,42.947575 L135.59598,42.947575 C140.010218,42.947575 143.588665,46.5270795 143.588665,50.9561513 L143.588665,105.652677 C143.588665,110.075692 140.00291,113.661254 135.59598,113.661254 L49.992685,113.661254 C45.578447,113.661254 42,110.081749 42,105.652677 L42,43.9435423 L42,33.9956596 C42,31.7889177 43.7924445,30 45.9994382,30 L69.4675258,30 C71.1272758,30 73.3612256,31.0027852 74.4576247,32.2402713 L83.9441781,42.947575 Z" id="path-6"></path>
        <path d="M61.5665676,63.5290499 C63.0678014,59.3708704 67.8705467,56 72.2774769,56 L157.880772,56 C162.29501,56 164.658558,59.365078 163.155233,63.5290499 L147.676368,106.403048 C146.175134,110.561228 141.372389,113.932098 136.965459,113.932098 L51.3621635,113.932098 C46.9479254,113.932098 44.5843777,110.56702 46.0877028,106.403048 L61.5665676,63.5290499 Z" id="path-8"></path>
    </defs>
    <g id="自助分析🐶" stroke="none" stroke-width="1" fill="none" fill-rule="evenodd">
        <g id="空态-文件夹">
            <rect id="Rectangle-21" x="0" y="0" width="200" height="160"></rect>
            <ellipse id="Oval" fill-opacity="0.6" fill="#DEDEDE" filter="url(#filter-1)" cx="100" cy="149" rx="60" ry="3"></ellipse>
            <mask id="mask-3" fill="white">
                <use xlink:href="#path-2"></use>
            </mask>
            <g id="Mask"></g>
            <mask id="mask-5" fill="white">
                <use xlink:href="#path-4"></use>
            </mask>
            <use id="Combined-Shape" fill="#DFDFDF" xlink:href="#path-4"></use>
            <mask id="mask-7" fill="white">
                <use xlink:href="#path-6"></use>
            </mask>
            <path stroke="#999999" stroke-width="2" d="M135.59598,43.947575 L83.4941369,43.947575 L73.7091385,32.9034218 C72.8028268,31.8804839 70.8415108,31 69.4675258,31 L45.9994382,31 C44.3438131,31 43,32.3421182 43,33.9956596 L43,105.652677 C43,109.5277 46.1289707,112.661254 49.992685,112.661254 L135.59598,112.661254 C139.452846,112.661254 142.588665,109.521183 142.588665,105.652677 L142.588665,50.9561513 C142.588665,47.0811288 139.459694,43.947575 135.59598,43.947575 Z"></path>
            <g id="Rectangle">
                <use fill="#FFFFFF" fill-rule="evenodd" xlink:href="#path-8"></use>
                <path stroke="#999999" stroke-width="2" d="M62.5071454,63.8686281 L47.0282806,106.742627 C45.7608813,110.253121 47.6391453,112.932098 51.3621635,112.932098 L136.965459,112.932098 C140.95344,112.932098 145.378454,109.823076 146.73579,106.06347 L162.214655,63.1894716 C163.482054,59.6789768 161.60379,57 157.880772,57 L72.2774769,57 C68.2894956,57 63.8644815,60.1090225 62.5071454,63.8686281 Z"></path>
            </g>
            <g id="乱七八糟/add" transform="translate(7.000000, 47.000000)" fill="#CCCCCC">
                <rect id="Rectangle-4" x="4.61538462" y="0" width="2.76923077" height="12"></rect>
                <rect id="Rectangle-4" transform="translate(6.000000, 6.000000) rotate(90.000000) translate(-6.000000, -6.000000) " x="4.61538462" y="0" width="2.76923077" height="12"></rect>
            </g>
            <g id="乱七八糟/add" transform="translate(19.000000, 102.000000)" fill="#CCCCCC">
                <rect id="Rectangle-4" x="3.46153846" y="0" width="2.07692308" height="9"></rect>
                <rect id="Rectangle-4" transform="translate(4.500000, 4.500000) rotate(90.000000) translate(-4.500000, -4.500000) " x="3.46153846" y="0" width="2.07692308" height="9"></rect>
            </g>
            <circle id="Oval-5" fill="#B2E0FF" cx="33.5" cy="21.5" r="2.5"></circle>
            <circle id="Oval-5" fill="#B2E0FF" cx="21" cy="77" r="2"></circle>
            <g id="乱七八糟/add" transform="translate(135.000000, 24.000000)" fill="#CCCCCC">
                <rect id="Rectangle-4" x="3.84615385" y="0" width="2.30769231" height="10"></rect>
                <rect id="Rectangle-4" transform="translate(5.000000, 5.000000) rotate(90.000000) translate(-5.000000, -5.000000) " x="3.84615385" y="0" width="2.30769231" height="10"></rect>
            </g>
            <g id="乱七八糟/add" transform="translate(166.000000, 114.000000)" fill="#CCCCCC">
                <rect id="Rectangle-4" x="3.84615385" y="0" width="2.30769231" height="10"></rect>
                <rect id="Rectangle-4" transform="translate(5.000000, 5.000000) rotate(90.000000) translate(-5.000000, -5.000000) " x="3.84615385" y="0" width="2.30769231" height="10"></rect>
            </g>
            <circle id="Oval-5" fill="#B2E0FF" cx="173.5" cy="81.5" r="2.5"></circle>
            <circle id="Oval-5" fill="#B2E0FF" cx="181.5" cy="46.5" r="3.5"></circle>
        </g>
    </g>
</svg>