<?xml version="1.0" encoding="UTF-8"?>
<svg width="12px" height="12px" viewBox="0 0 12 12" version="1.1" xmlns="http://www.w3.org/2000/svg" xmlns:xlink="http://www.w3.org/1999/xlink">
    <!-- Generator: Sketch 56.2 (81672) - https://sketch.com -->
    <title>图标/sql</title>
    <desc>Created with Sketch.</desc>
    <g id="图标/sql" stroke="none" stroke-width="1" fill="none" fill-rule="evenodd">
        <g>
            <rect id="矩形" fill="#68D90B" x="0" y="0" width="12" height="12" rx="2"></rect>
            <path d="M7.2343197,7.4459279 C7.2343197,7.18157411 7.14233534,6.95994749 6.95836385,6.78104139 C6.77439237,6.60213529 6.45050377,6.44993387 5.98668834,6.32443258 C5.41145356,6.17756936 4.96254397,5.96128314 4.63994609,5.67556742 C4.3173482,5.38985171 4.15605168,5.03070977 4.15605168,4.59813084 C4.15605168,4.14151975 4.32965597,3.76101621 4.67686975,3.45660881 C5.02408354,3.15220142 5.47493647,3 6.02944207,3 C6.62540602,3 7.10022671,3.17423057 7.45391836,3.52269693 C7.80761002,3.87116329 7.97927097,4.27770128 7.96890638,4.7423231 L7.95724628,4.76635514 L7.22654629,4.76635514 C7.22654629,4.43524534 7.11448084,4.16154981 6.89034657,3.94526035 C6.6662123,3.72897088 6.379247,3.62082777 6.02944207,3.62082777 C5.67186369,3.62082777 5.39785394,3.71027948 5.20740458,3.88918558 C5.01695523,4.06809168 4.92173198,4.30039911 4.92173198,4.58611482 C4.92173198,4.83978765 5.02602411,5.05140102 5.2346115,5.22096128 C5.44319888,5.39052154 5.78198636,5.53938521 6.25098408,5.66755674 C6.82103656,5.81976044 7.25504729,6.04405726 7.55302927,6.34045394 C7.85101124,6.63685061 8,7.00266805 8,7.43791722 C8,7.90787952 7.82056572,8.28571286 7.46169177,8.57142857 C7.10281782,8.85714429 6.63447491,9 6.05664898,9 C5.50991683,9 5.02732281,8.84245818 4.60885247,8.52736983 C4.19038212,8.21228147 3.98762786,7.79038983 4.0005836,7.26168224 L4.008357,7.2376502 L4.73905699,7.2376502 C4.73905699,7.60347312 4.87379464,7.8858468 5.143274,8.08477971 C5.41275336,8.28371261 5.71720864,8.38317757 6.05664898,8.38317757 C6.41940965,8.38317757 6.70637495,8.29906626 6.91755348,8.13084112 C7.12873202,7.96261598 7.2343197,7.73431386 7.2343197,7.4459279 Z" id="S" fill="#FFFFFF" fill-rule="nonzero"></path>
        </g>
    </g>
</svg>