<?xml version="1.0" encoding="UTF-8"?>
<svg width="16px" height="16px" viewBox="0 0 16 16" version="1.1" xmlns="http://www.w3.org/2000/svg" xmlns:xlink="http://www.w3.org/1999/xlink">
    <!-- Generator: Sketch 56.2 (81672) - https://sketch.com -->
    <title>sql</title>
    <desc>Created with Sketch.</desc>
    <g id="new" stroke="none" stroke-width="1" fill="none" fill-rule="evenodd">
        <g id="cut" transform="translate(-114.000000, -538.000000)" fill="#000000">
            <g id="sql" transform="translate(114.000000, 538.000000)">
                <path d="M6,1 L6,2 L3,2 C2.43429525,2 2,2.40031425 2,2.84615385 L2,12.1538462 C2,12.6019425 2.43207951,13 3,13 L11,13 C11.5657621,13 12,12.6001341 12.0000058,12.1504486 L12.0076513,9.90016043 L13.0076456,9.903558 L13,12.1538462 C13,13.1739072 12.0980496,14 11,14 L3,14 C1.8992496,14 1,13.1751914 1,12.1538462 L1,2.84615385 C1,1.82769192 1.90081734,1 3,1 L6,1 Z" id="Rectangle-21-Copy" transform="translate(7.003823, 7.500000) scale(1, -1) translate(-7.003823, -7.500000) "></path>
                <path d="M4.92,7.632 C5.418,7.632 5.808,7.734 6.09,7.95 C6.39,8.172 6.558,8.514 6.6,8.982 L5.952,8.982 C5.892,8.706 5.784,8.502 5.616,8.382 C5.448,8.256 5.208,8.196 4.884,8.196 C4.602,8.196 4.386,8.238 4.236,8.322 C4.05,8.418 3.96,8.574 3.96,8.79 C3.96,8.982 4.062,9.132 4.278,9.246 C4.374,9.3 4.62,9.39 5.022,9.51 C5.598,9.69 5.976,9.828 6.144,9.93 C6.51,10.152 6.696,10.458 6.696,10.854 C6.696,11.238 6.546,11.538 6.246,11.76 C5.946,11.976 5.526,12.084 4.986,12.084 C4.464,12.084 4.056,11.976 3.762,11.772 C3.408,11.52 3.216,11.124 3.18,10.584 L3.828,10.584 C3.876,10.92 3.996,11.166 4.188,11.31 C4.362,11.442 4.626,11.508 4.986,11.508 C5.31,11.508 5.568,11.448 5.76,11.34 C5.952,11.232 6.048,11.082 6.048,10.89 C6.048,10.65 5.91,10.464 5.64,10.326 C5.544,10.278 5.262,10.182 4.788,10.038 C4.26,9.87 3.936,9.756 3.804,9.684 C3.474,9.486 3.312,9.198 3.312,8.826 C3.312,8.448 3.468,8.154 3.786,7.938 C4.086,7.734 4.464,7.632 4.92,7.632 Z M9.198,7.632 C9.846,7.632 10.362,7.842 10.74,8.268 C11.1,8.67 11.28,9.204 11.28,9.864 C11.28,10.506 11.106,11.028 10.758,11.436 C10.914,11.646 11.076,11.862 11.232,12.09 L10.812,12.462 C10.65,12.228 10.494,12.006 10.338,11.796 C10.02,11.988 9.642,12.084 9.198,12.084 C8.544,12.084 8.028,11.868 7.656,11.448 C7.296,11.04 7.122,10.512 7.122,9.864 C7.122,9.21 7.296,8.682 7.656,8.274 C8.028,7.842 8.544,7.632 9.198,7.632 Z M9.198,8.208 C8.742,8.208 8.388,8.358 8.136,8.67 C7.896,8.964 7.776,9.36 7.776,9.864 C7.776,10.362 7.896,10.758 8.136,11.052 C8.388,11.352 8.742,11.508 9.198,11.508 C9.498,11.508 9.756,11.442 9.966,11.316 C9.75,11.046 9.534,10.8 9.324,10.578 L9.702,10.206 C9.918,10.434 10.134,10.68 10.35,10.932 C10.53,10.656 10.62,10.302 10.62,9.864 C10.62,9.348 10.494,8.946 10.254,8.652 C10.008,8.352 9.654,8.208 9.198,8.208 Z M11.94,7.716 L12.588,7.716 L12.588,11.442 L14.946,11.442 L14.946,12 L11.94,12 L11.94,7.716 Z" id="SQL" fill-rule="nonzero"></path>
            </g>
        </g>
    </g>
</svg>