<?xml version="1.0" encoding="UTF-8"?>
<svg width="12px" height="12px" viewBox="0 0 12 12" version="1.1" xmlns="http://www.w3.org/2000/svg" xmlns:xlink="http://www.w3.org/1999/xlink">
    <!-- Generator: Sketch 63 (92445) - https://sketch.com -->
    <title>图标/基础图标/12/问号备份 2</title>
    <desc>Created with Sketch.</desc>
    <g id="数据资产-数据权限申请" stroke="none" stroke-width="1" fill="none" fill-rule="evenodd">
        <g id="数据资产-数据权限申请-选择账号和权限-无数据" transform="translate(-456.000000, -402.000000)" fill="#3B68B7">
            <g id="编组-22" transform="translate(120.000000, 100.000000)">
                <g id="编组-6备份" transform="translate(20.000000, 292.000000)">
                    <g id="图标/基础图标/12/问号备份-2" transform="translate(316.000000, 10.000000)">
                        <path d="M6,0 C9.3137085,0 12,2.6862915 12,6 C12,9.3137085 9.3137085,12 6,12 C2.6862915,12 0,9.3137085 0,6 C0,2.6862915 2.6862915,0 6,0 Z M6,1 C3.23857625,1 1,3.23857625 1,6 C1,8.76142375 3.23857625,11 6,11 C8.76142375,11 11,8.76142375 11,6 C11,3.23857625 8.76142375,1 6,1 Z M6.35681023,8.76786798 L6.35681023,9.8 L5.42397863,9.8 L5.42397863,8.76786798 L6.35681023,8.76786798 Z M7.47560274,2.84287318 C8.16530952,3.44118151 8.32860774,4.75029493 7.66156366,5.48536987 C7.40135466,5.77213215 7.14212824,6.06088376 6.8668636,6.33146614 C6.47021881,6.72139189 6.28001061,7.19178614 6.30064476,7.75848066 C6.30224542,7.80319091 6.30081909,7.84800063 6.30081909,7.90405007 L5.44526255,7.90405007 C5.42415296,7.29678974 5.4991142,6.72285074 5.89724871,6.24814626 C6.21878963,5.86478531 6.5524543,5.49251489 6.87949449,5.114177 C7.17133618,4.77655412 7.21105138,4.3731009 7.12437844,3.95365014 C7.02382261,3.46712572 6.64538722,3.1355703 6.17059573,3.10060778 C5.99688535,3.08782632 5.81743797,3.08333375 5.64691304,3.1137208 C5.11614627,3.20844618 4.78588893,3.58323643 4.69568187,4.1730901 C4.66912055,4.34679198 4.65783675,4.52304684 4.63886664,4.70483868 L3.80609959,4.70483868 C3.72457726,3.34345555 4.46811984,2.53838926 5.56323538,2.34353414 C6.26191215,2.21923401 6.91158678,2.35369631 7.47560274,2.84287318 Z" id="形状结合"></path>
                    </g>
                </g>
            </g>
        </g>
    </g>
</svg>