<?xml version="1.0" encoding="UTF-8"?>
<svg width="12px" height="12px" viewBox="0 0 12 12" version="1.1" xmlns="http://www.w3.org/2000/svg" xmlns:xlink="http://www.w3.org/1999/xlink">
    <!-- Generator: Sketch 63 (92445) - https://sketch.com -->
    <title>icon/列表/筛选/normal</title>
    <desc>Created with Sketch.</desc>
    <g id="icon/列表/筛选/normal" stroke="none" stroke-width="1" fill="none" fill-rule="evenodd">
        <path d="M6.78086881,0.976086012 L8.70024396,3.37530495 C9.04525351,3.80656689 8.97533214,4.43585926 8.5440702,4.78086881 C8.36675715,4.92271925 8.14644665,5 7.91937515,5 L4.08062485,5 C3.5283401,5 3.08062485,4.55228475 3.08062485,4 C3.08062485,3.7729285 3.1579056,3.552618 3.29975604,3.37530495 L5.21913119,0.976086012 C5.56414074,0.544824077 6.19343311,0.474902702 6.62469505,0.81991225 C6.68235975,0.866044012 6.73473705,0.918421309 6.78086881,0.976086012 Z" id="三角形" fill="#888888"></path>
        <path d="M6.78086881,7.97608601 L8.70024396,10.375305 C9.04525351,10.8065669 8.97533214,11.4358593 8.5440702,11.7808688 C8.36675715,11.9227192 8.14644665,12 7.91937515,12 L4.08062485,12 C3.5283401,12 3.08062485,11.5522847 3.08062485,11 C3.08062485,10.7729285 3.1579056,10.552618 3.29975604,10.375305 L5.21913119,7.97608601 C5.56414074,7.54482408 6.19343311,7.4749027 6.62469505,7.81991225 C6.68235975,7.86604401 6.73473705,7.91842131 6.78086881,7.97608601 Z" id="三角形备份" fill="#888888" transform="translate(6.000000, 9.500000) scale(1, -1) translate(-6.000000, -9.500000) "></path>
    </g>
</svg>