<?xml version="1.0" encoding="UTF-8"?>
<svg width="12px" height="12px" viewBox="0 0 12 12" version="1.1" xmlns="http://www.w3.org/2000/svg" xmlns:xlink="http://www.w3.org/1999/xlink">
    <!-- Generator: Sketch 63 (92445) - https://sketch.com -->
    <title>icon/列表/筛选/漏斗已筛</title>
    <desc>Created with Sketch.</desc>
    <g id="icon/列表/筛选/漏斗已筛" stroke="none" stroke-width="1" fill="none" fill-rule="evenodd">
        <path d="M2.41421356,1 L8.60122805,1 C9.1535128,1 9.60122805,1.44771525 9.60122805,2 C9.60122805,2.26364102 9.49711577,2.51661568 9.31154312,2.70388387 L7.32590098,4.7076683 C7.14032832,4.89493648 7.03621605,5.14791115 7.03621605,5.41155216 L7.03621605,10.8476947 C7.03621605,11.1238371 6.81235842,11.3476947 6.53621605,11.3476947 C6.40938405,11.3476947 6.2872918,11.2994946 6.19466378,11.2128551 L4.31689546,9.45648661 C4.1147373,9.26739821 4,9.00297343 4,8.72616601 L4,5.41421356 C4,5.14899707 3.89464316,4.89464316 3.70710678,4.70710678 L1.70710678,2.70710678 C1.31658249,2.31658249 1.31658249,1.68341751 1.70710678,1.29289322 C1.89464316,1.10535684 2.14899707,1 2.41421356,1 Z" id="矩形" fill="#3B68B7"></path>
    </g>
</svg>